<svg width="123" height="161" viewBox="0 0 123 161" fill="none" xmlns="http://www.w3.org/2000/svg">
<path d="M102.883 139.22C102.883 136.973 102.892 134.744 102.688 132.503C102.349 128.771 101.04 125.188 100.894 121.397C100.762 117.985 100.603 114.37 101.13 110.986C101.406 109.215 101.285 107.402 101.756 105.659C102.148 104.209 102.715 102.828 102.994 101.347C104.473 93.5115 103.884 85.2961 103.884 77.3729C103.884 73.5895 103.884 69.806 103.884 66.0226C103.884 61.3215 103.384 56.633 103.384 51.9313C103.384 48.7912 102.178 45.8839 102.132 42.7558C102.094 40.1984 101.279 37.6695 101.144 35.0989C101.028 32.8934 100.795 30.571 100.128 28.4457C99.2835 25.7534 96.1157 24.3891 93.4512 23.5169C91.0579 22.7335 88.5335 22.4049 86.1062 21.7282C83.2986 20.9454 80.3564 20.0225 77.4258 19.7464C73.2383 19.3518 68.9125 19 64.6973 19C60.6345 19 56.581 19.4773 52.5531 19.9266C48.7755 20.3479 44.9956 20.4565 41.2157 20.9561C36.6377 21.5611 31.5626 20.5208 27.2631 22.4231C24.9859 23.4306 23.9093 26.595 23.2706 28.6259C22.0306 32.5694 21.9561 37.1102 21.5596 41.1858C20.8885 48.0838 21.7308 55.137 21.3092 62.059C20.7623 71.0395 20.7528 80.0864 20.7528 89.0835C20.7528 96.6965 20.5024 104.316 20.5024 111.938C20.5024 116.893 20.0016 121.823 20.0016 126.763C20.0016 131.922 19 136.862 19 142" stroke="white" stroke-width="37" stroke-linecap="round"/>
</svg>
