<?xml version="1.0" encoding="utf-8"?>
<!-- Generator: Adobe Illustrator 16.0.0, SVG Export Plug-In . SVG Version: 6.00 Build 0)  -->
<!DOCTYPE svg PUBLIC "-//W3C//DTD SVG 1.1//EN" "http://www.w3.org/Graphics/SVG/1.1/DTD/svg11.dtd">
<svg version="1.1" id="Layer_1" xmlns="http://www.w3.org/2000/svg" xmlns:xlink="http://www.w3.org/1999/xlink" x="0px" y="0px"
	 width="841.89px" height="595.28px" viewBox="0 0 841.89 595.28" enable-background="new 0 0 841.89 595.28" xml:space="preserve">
<path fill-rule="evenodd" clip-rule="evenodd" fill="none" stroke="#DFDEDE" stroke-miterlimit="10" d="M214.618,158.61v-16.6
	h16.659v16.6H214.618z M186.22,177.096h61.338c14.48,0,16.28-12.827,16.28-12.827v-32.444H186.22v-12.072h94.277v44.517
	c0,19.979-22.338,24.899-22.338,24.899h-79.133v20.749c0,0-1.028,8.564,9.465,11.695h42.271l20.202-17.731l20.067,17.731h7.572
	v12.072h-13.252l-14.388-13.204l-14.388,13.204l0,0h-59.065c-15.137,0-15.146-15.09-15.146-15.09V117.111l4.923-4.905h11.737v57.721
	C179.027,169.928,179.21,177.096,186.22,177.096z"/>
<path fill-rule="evenodd" clip-rule="evenodd" fill="#DFDEDE" d="M363.005,158.61v-16.6h16.659v16.6H363.005z M334.607,177.096
	h61.338c14.48,0,16.28-12.827,16.28-12.827v-32.444h-77.618v-12.072h94.277v44.517c0,19.979-22.338,24.899-22.338,24.899h-79.133
	v20.749c0,0-1.028,8.564,9.465,11.695h42.271l20.202-17.731l20.067,17.731h7.572v12.072H413.74l-14.388-13.204l-14.388,13.204l0,0
	h-59.065c-15.137,0-15.146-15.09-15.146-15.09V117.111l4.923-4.905h11.737v57.721C327.414,169.928,327.598,177.096,334.607,177.096z
	"/>
<g>
	<g>
		<path fill="#DFDEDE" d="M459.038,106.043c0.559,14.291,0.381,28.591,0.408,42.89c0.023,12.717,1.343,25.447,1.31,38.128
			c-0.039,14.667-7.797,39.074,7.974,48.59c4.779,2.884,10.55,2.716,15.945,3.008c5.84,0.317,11.689,0.438,17.536,0.553
			c9.297,0.182,18.572,0.423,27.861,0.854c6.357,0.295,12.411-0.683,17.076-5.42c1.994-2.025,3.566-4.572,5.265-6.859
			c1.667-2.244-1.846,2.319,0.148-0.179c0.667-0.835,1.362-1.647,2.057-2.46c1.819-2.127,3.761-4.147,5.721-6.144
			c-5.893,0-11.785,0-17.678,0c6.268,6.368,12.393,14.646,20.697,18.455c8.883,4.074,19.052,3.456,28.609,3.422
			c16.119-0.057,16.124-25.057,0-25c-3.559,0.013-7.114,0.062-10.673-0.028c-1.776-0.044-3.546-0.169-5.315-0.328
			c2.779,0.25-4.726-1.818-0.832-0.032c-0.615-0.321-1.207-0.679-1.776-1.075c0.96,0.802,0.844,0.705-0.347-0.29
			c-1.763-1.472-3.384-3.119-5-4.746c-2.614-2.634-5.082-5.41-7.686-8.055c-4.745-4.821-12.934-4.832-17.678,0
			c-5.03,5.124-9.464,10.629-13.719,16.404c-1.083,1.471,2.417-2.681,0.263-0.493c0.02-0.02,3.438-1.978,3.461-1.985
			c-2.447,0.816,3.741-0.226,0.709-0.119c-1.1,0.039-2.205-0.022-3.303-0.067c-8.267-0.339-16.516-0.658-24.79-0.799
			c-5.295-0.09-10.589-0.207-15.882-0.398c-2.589-0.094-5.176-0.228-7.763-0.383c-0.97-0.062-1.939-0.129-2.908-0.205
			c1.941,0.144,3.229,1.208,4.682,2.366c-0.861-0.903-0.598-0.553,0.789,1.049c-1.331-2.093,0.95,2.871,0.199,0.258
			c-0.139-0.542-0.254-1.088-0.346-1.64c0.65,3.449,0.113,0.339,0.067-0.403c-0.22-3.64,0.056-7.317,0.33-10.946
			c0.498-6.592,1.733-13.344,1.199-19.966c-2.094-25.939-0.597-51.979-1.612-77.957c-0.266-6.807-5.484-12.5-12.5-12.5
			C464.926,93.543,458.771,99.23,459.038,106.043L459.038,106.043z"/>
	</g>
</g>
<g>
	<g>
		<path fill="#DFDEDE" d="M487.667,138.333c14.434-0.908,28.889-0.067,43.333-0.5c8.055-0.241,16.098-0.67,24.159-0.565
			c1.893,0.024,3.784,0.103,5.674,0.207c1.056,0.058,2.109,0.152,3.162,0.249c3.375,0.311-2.641-0.451,0.472,0.061
			c1.305,0.215,2.582,0.546,3.835,0.967c-3.246-1.089-0.131,0.527-2.982-1.814c-1.823-1.497-2.774-10.649-2.733-5.095
			c0.046,6.292,0.627,12.569,0.752,18.86c0.049,2.479,0.01,5.93-0.277,7.846c-0.239,1.599-0.649,3.164-1.064,4.724
			c-0.079,0.301-2.105,4.989-0.689,2.139c-0.773,1.198-0.702,1.217,0.214,0.057c-0.627,0.811-1.401,1.495-2.163,2.172
			c2.102-1.87-0.443,0.089-0.92,0.359c-2.986,1.692,2.317-0.75-0.995,0.463c-1.79,0.655-3.666,1.068-5.529,1.45
			c-0.255,0.052-4.083,0.57-1.391,0.252c-1.203,0.142-2.413,0.224-3.621,0.308c-8.506,0.596-17.127,0.078-25.646-0.064
			c-15.146-0.253-30.477-0.118-45.589-1.242c-6.804-0.506-12.5,6.069-12.5,12.5c0,7.196,5.708,11.995,12.5,12.5
			c16.907,1.258,34.073,1.113,51.02,1.322c21.016,0.26,48.278,1.738,57.944-21.405c5.583-13.366,3.244-28.22,2.955-42.241
			c-0.283-13.714-10.875-17.559-22.592-19.012c-9.225-1.144-18.71-0.579-27.969-0.219c-13.824,0.537-27.639,0.038-41.464,0.353
			c-2.635,0.06-5.265,0.203-7.895,0.368c-6.798,0.428-12.5,5.362-12.5,12.5C475.167,132.324,480.859,138.762,487.667,138.333
			L487.667,138.333z"/>
	</g>
</g>
<g>
	<g>
		<path fill="#DFDEDE" d="M511.334,149.75c0,1.083,0,2.167,0,3.25c0,6.814,5.686,12.5,12.5,12.5s12.5-5.686,12.5-12.5
			c0-1.083,0-2.167,0-3.25c0-6.814-5.686-12.5-12.5-12.5S511.334,142.936,511.334,149.75L511.334,149.75z"/>
	</g>
</g>
</svg>
