<svg width="100" height="100" viewBox="0 0 100 100" fill="none" xmlns="http://www.w3.org/2000/svg">
<path fill-rule="evenodd" clip-rule="evenodd" d="M44.4639 38.4352V25.0436H58.0017V38.4352H44.4639ZM21.3864 53.3483H71.2323C82.9994 53.3483 84.4622 43.0005 84.4622 43.0005V16.8271H21.3864V7.08834H98V43.0013C98 59.1188 79.8472 63.0879 79.8472 63.0879H15.5403V79.8266C15.5403 79.8266 14.7049 86.7354 23.2319 89.2612H57.5832L74.0002 74.9572L90.3075 89.2612H96.4608V99H85.6917L73.9994 88.348L62.3071 99H14.3083C2.00731 99 2 86.8265 2 86.8265V4.95698L6.00065 1H15.5386V47.5649C15.5411 47.5657 15.6898 53.3483 21.3864 53.3483Z" stroke="white" stroke-miterlimit="10"/>
</svg>
