<?xml version="1.0" encoding="utf-8"?>
<!-- Generator: Adobe Illustrator 16.0.0, SVG Export Plug-In . SVG Version: 6.00 Build 0)  -->
<!DOCTYPE svg PUBLIC "-//W3C//DTD SVG 1.1//EN" "http://www.w3.org/Graphics/SVG/1.1/DTD/svg11.dtd">
<svg version="1.1" id="Layer_1" xmlns="http://www.w3.org/2000/svg" xmlns:xlink="http://www.w3.org/1999/xlink" x="0px" y="0px"
	 width="100px" height="100px" viewBox="0 0 100 100" enable-background="new 0 0 100 100" xml:space="preserve">
<g>
	<g>
		<path fill="none" stroke="#DEDEDE" stroke-miterlimit="10" d="M27.396,72.208v0.01c0,0,11.547,0.552,19.706-6.337l0.152-0.009
			c8.184,6.888,18.85,6.336,18.85,6.336v-0.01c0,0,22.223,1.094,25.436-18.864V18.043c0,0,0.02-3.652,4.582-3.652h1.527V1H83.292
			c0,0-4.411,0.366-5.192,3.957l-0.042,46.247c0,0-0.307,11.259-12.259,11.259v0.008c-12.373,0-12.135-11.253-12.135-11.253V1
			l-13.44,0.01v50.207c0,0-0.174,11.262-12.829,11.262V62.47c-11.656,0-11.607-11.259-11.607-11.259V1.01L6.32,1L2.349,4.957v48.992
			C5.552,73.91,27.396,72.208,27.396,72.208z M97.648,94.435v-14H84.209v4.87c0,4.027-4.276,3.956-4.276,3.956H6.93l-3.97,3.957V99
			h91.329C97.892,98.221,97.648,94.435,97.648,94.435z"/>
	</g>
</g>
</svg>
