<svg width="100" height="100" viewBox="0 0 100 100" fill="none" xmlns="http://www.w3.org/2000/svg">
<g clip-path="url(#clip0_277_80757)">
<path d="M-4.167 6.00004H80.166C80.166 6.00004 91.333 5.16704 91.333 10.833V13.833C91.333 13.833 91.665 17 88.499 18.833L81.999 21.833C78.371 22.937 74.378 24.806 74.359 27.904C74.359 27.904 74.166 30.083 75.499 31.249C75.499 31.249 77.833 34.332 77.833 38.457V75.332C77.833 75.332 77.582 93.499 101.999 92.582M9.083 79.75V48.583C9.083 48.583 6.5 30.583 31.083 30.583C31.083 30.583 51.75 30 51.75 48.166V79.75M-4.625 92.617H65.25" stroke="#DEDEDE" stroke-miterlimit="10"/>
</g>
<defs>
<clipPath id="clip0_277_80757">
<rect width="100" height="100" fill="white"/>
</clipPath>
</defs>
</svg>
