<?xml version="1.0" encoding="utf-8"?>
<!-- Generator: Adobe Illustrator 16.0.0, SVG Export Plug-In . SVG Version: 6.00 Build 0)  -->
<!DOCTYPE svg PUBLIC "-//W3C//DTD SVG 1.1//EN" "http://www.w3.org/Graphics/SVG/1.1/DTD/svg11.dtd">
<svg version="1.1" id="Layer_1" xmlns="http://www.w3.org/2000/svg" xmlns:xlink="http://www.w3.org/1999/xlink" x="0px" y="0px"
	 width="100px" height="100px" viewBox="0 0 100 100" enable-background="new 0 0 100 100" xml:space="preserve">
<path fill-rule="evenodd" clip-rule="evenodd" fill="none" stroke="#DEDEDE" stroke-miterlimit="10" d="M44.502,38.435V25.044
	h13.439v13.391H44.502z M21.593,53.348h49.483C82.758,53.348,84.21,43,84.21,43V16.827H21.593V7.087h76.057V43
	c0,16.118-18.021,20.087-18.021,20.087H15.79v16.739c0,0-0.83,6.909,7.635,9.435h34.102l16.297-14.304l16.189,14.304h6.109V99
	H85.432L73.824,88.348L62.218,99l0,0h-47.65C2.357,99,2.35,86.827,2.35,86.827V4.957L6.321,1h9.469v46.566
	C15.79,47.566,15.938,53.348,21.593,53.348z"/>
</svg>
