<?xml version="1.0" encoding="utf-8"?>
<!-- Generator: Adobe Illustrator 16.0.0, SVG Export Plug-In . SVG Version: 6.00 Build 0)  -->
<!DOCTYPE svg PUBLIC "-//W3C//DTD SVG 1.1//EN" "http://www.w3.org/Graphics/SVG/1.1/DTD/svg11.dtd">
<svg version="1.1" id="Layer_1" xmlns="http://www.w3.org/2000/svg" xmlns:xlink="http://www.w3.org/1999/xlink" x="0px" y="0px"
	 width="100px" height="100px" viewBox="0 0 100 100" enable-background="new 0 0 100 100" xml:space="preserve">
<path fill-rule="evenodd" clip-rule="evenodd" fill="none" stroke="#DEDEDE" stroke-miterlimit="10" d="M71.075,82.261
	c0,0,0.401,7.534,8.554,12.478c0,0,6.797,4.262,18.021,4.262V84.695c-11.623-1.807-12.523-7.913-12.523-7.913v-49l12.523-5.479V1
	H4.793L2.35,3.435v7.305h81.249v3.652l-17.104,7v11.565l4.581,3.957V82.261z M30.146,25.957c0,0,25.204-0.983,28.407,18.978v31.848
	l-13.44,0.002V47.673c0,0-1.86-11.978-14.967-11.978S15.79,47.673,15.79,47.673v29.111L2.35,76.782V44.934
	C5.553,24.974,30.146,25.957,30.146,25.957z M58.857,99H2.35V85.608h56.507V99z"/>
</svg>
