<?xml version="1.0" encoding="utf-8"?>
<!-- Generator: Adobe Illustrator 16.0.0, SVG Export Plug-In . SVG Version: 6.00 Build 0)  -->
<!DOCTYPE svg PUBLIC "-//W3C//DTD SVG 1.1//EN" "http://www.w3.org/Graphics/SVG/1.1/DTD/svg11.dtd">
<svg version="1.1" id="Layer_1" xmlns="http://www.w3.org/2000/svg" xmlns:xlink="http://www.w3.org/1999/xlink" x="0px" y="0px"
	 width="100px" height="100px" viewBox="0 0 100 100" enable-background="new 0 0 100 100" xml:space="preserve">
<path fill-rule="evenodd" clip-rule="evenodd" fill="none" stroke="#DEDEDE" stroke-miterlimit="10" d="M85.542,1H72.061v81.82
	c0,0-0.01,16.181,25.738,16.181V85.872c-12.756,0-12.257-9.464-12.257-9.464V1z M44.791,85.567h13.481V99H44.791V85.567z
	 M44.791,47.717c0,0-1.866-11.905-15.014-11.905v-0.009c-13.147,0-14.094,11.907-14.094,11.907v37.246l11.031-20.454l4.596,3.969
	L19.667,99H2.202V46.184c3.213-20.025,27.576-18.929,27.576-18.929v0.01c0,0,25.282-1.097,28.495,18.926v32.964l-13.481,0.002
	V47.717z M2.202,4.968L6.491,1h51.781v12.212H2.202V4.968z"/>
</svg>
