<?xml version="1.0" encoding="utf-8"?>
<!-- Generator: Adobe Illustrator 16.0.0, SVG Export Plug-In . SVG Version: 6.00 Build 0)  -->
<!DOCTYPE svg PUBLIC "-//W3C//DTD SVG 1.1//EN" "http://www.w3.org/Graphics/SVG/1.1/DTD/svg11.dtd">
<svg version="1.1" id="Layer_1" xmlns="http://www.w3.org/2000/svg" xmlns:xlink="http://www.w3.org/1999/xlink" x="0px" y="0px"
	 width="100px" height="100px" viewBox="0 0 100 100" enable-background="new 0 0 100 100" xml:space="preserve">
<g>
	<g>
		<path fill="none" stroke="#DEDEDE" stroke-miterlimit="10" d="M83.222,1.176c0,0-4.41,0.366-5.193,3.956v94.043h14.051V18.523
			c0,0,0.02-3.653,4.581-3.653h1.224V1.176H83.222z M16.939,40.74V14.567l16.799,15.217L56.647,8.479l-6.109-7.304L33.739,16.393
			L16.939,1.176H7.164l-3.97,3.956v42.914c0,0,40.93,3.356,40.93,28.606c0,0,0.757,12.479-12.828,12.479h-6.109
			c-8.466-2.523-8.554-10.652-8.554-10.652V68.13h9.775v-9.737L3.194,58.392v25.262c0,0,1.043,13.109,17.41,15.216h18.022
			c18.997,0,19.548-21.607,19.548-21.607C58.174,47.736,16.939,40.74,16.939,40.74z M47.397,33.74l9.25,9.217l9.251-9.217
			l-9.251-9.217L47.397,33.74z"/>
	</g>
</g>
</svg>
